<svg xmlns="http://www.w3.org/2000/svg" width="900" height="480" viewBox="0 0 900 480"><rect width="100%" height="100%" fill="white"/><style>text{font-family:Arial,"Microsoft YaHei",sans-serif;fill:#172033}.axis{stroke:#4b5563;stroke-width:1.4}.grid{stroke:#d9dee7;stroke-width:1}.line{fill:none;stroke-width:2.5}</style><text x="450.0" y="30" text-anchor="middle" font-size="20" font-weight="700">Balanced multi-task projector continuation</text><line class="grid" x1="85" y1="410.00" x2="710" y2="410.00"/><text x="75" y="414.00" text-anchor="end" font-size="12">0.917</text><line class="grid" x1="85" y1="339.00" x2="710" y2="339.00"/><text x="75" y="343.00" text-anchor="end" font-size="12">1.317</text><line class="grid" x1="85" y1="268.00" x2="710" y2="268.00"/><text x="75" y="272.00" text-anchor="end" font-size="12">1.717</text><line class="grid" x1="85" y1="197.00" x2="710" y2="197.00"/><text x="75" y="201.00" text-anchor="end" font-size="12">2.116</text><line class="grid" x1="85" y1="126.00" x2="710" y2="126.00"/><text x="75" y="130.00" text-anchor="end" font-size="12">2.516</text><line class="grid" x1="85" y1="55.00" x2="710" y2="55.00"/><text x="75" y="59.00" text-anchor="end" font-size="12">2.916</text><line class="grid" x1="85.00" y1="55" x2="85.00" y2="410"/><text x="85.00" y="432" text-anchor="middle" font-size="12">1</text><line class="grid" x1="211.26" y1="55" x2="211.26" y2="410"/><text x="211.26" y="432" text-anchor="middle" font-size="12">21</text><line class="grid" x1="337.53" y1="55" x2="337.53" y2="410"/><text x="337.53" y="432" text-anchor="middle" font-size="12">41</text><line class="grid" x1="457.47" y1="55" x2="457.47" y2="410"/><text x="457.47" y="432" text-anchor="middle" font-size="12">60</text><line class="grid" x1="583.74" y1="55" x2="583.74" y2="410"/><text x="583.74" y="432" text-anchor="middle" font-size="12">80</text><line class="grid" x1="710.00" y1="55" x2="710.00" y2="410"/><text x="710.00" y="432" text-anchor="middle" font-size="12">100</text><line class="axis" x1="85" y1="410" x2="710" y2="410"/><line class="axis" x1="85" y1="55" x2="85" y2="410"/><text x="397.5" y="460" text-anchor="middle" font-size="14">optimizer step</text><text x="20" y="232.5" transform="rotate(-90 20 232.5)" text-anchor="middle" font-size="14">teacher-forced loss</text><polyline class="line" stroke="#2563eb" points="85.00,79.48 91.31,150.79 97.63,152.41 103.94,99.86 110.25,168.14 116.57,176.12 122.88,143.98 129.19,174.96 135.51,226.96 141.82,233.89 148.13,233.88 154.44,215.21 160.76,183.32 167.07,187.28 173.38,244.26 179.70,268.62 186.01,259.15 192.32,257.64 198.64,259.59 204.95,223.30 211.26,272.14 217.58,315.58 223.89,269.58 230.20,293.19 236.52,315.44 242.83,258.62 249.14,311.85 255.45,283.54 261.77,274.42 268.08,262.46 274.39,258.55 280.71,274.11 287.02,278.82 293.33,277.81 299.65,301.83 305.96,266.88 312.27,294.44 318.59,244.77 324.90,324.58 331.21,292.83 337.53,303.68 343.84,296.95 350.15,300.83 356.46,306.46 362.78,276.88 369.09,301.45 375.40,218.59 381.72,318.06 388.03,337.13 394.34,313.68 400.66,318.59 406.97,276.71 413.28,297.52 419.60,328.14 425.91,315.48 432.22,258.07 438.54,357.02 444.85,309.27 451.16,342.12 457.47,321.40 463.79,365.27 470.10,360.73 476.41,259.41 482.73,299.64 489.04,325.85 495.35,326.15 501.67,348.74 507.98,339.23 514.29,330.15 520.61,287.51 526.92,340.36 533.23,324.38 539.55,307.51 545.86,310.80 552.17,294.26 558.48,334.93 564.80,326.83 571.11,338.03 577.42,321.62 583.74,336.93 590.05,332.47 596.36,366.77 602.68,343.14 608.99,320.40 615.30,385.52 621.62,328.86 627.93,296.01 634.24,348.80 640.56,355.05 646.87,363.60 653.18,311.83 659.49,310.19 665.81,348.57 672.12,329.52 678.43,328.89 684.75,368.27 691.06,353.19 697.37,353.39 703.69,333.70 710.00,333.29"/><circle cx="85.00" cy="79.48" r="4" fill="#2563eb"/><circle cx="91.31" cy="150.79" r="4" fill="#2563eb"/><circle cx="97.63" cy="152.41" r="4" fill="#2563eb"/><circle cx="103.94" cy="99.86" r="4" fill="#2563eb"/><circle cx="110.25" cy="168.14" r="4" fill="#2563eb"/><circle cx="116.57" cy="176.12" r="4" fill="#2563eb"/><circle cx="122.88" cy="143.98" r="4" fill="#2563eb"/><circle cx="129.19" cy="174.96" r="4" fill="#2563eb"/><circle cx="135.51" cy="226.96" r="4" fill="#2563eb"/><circle cx="141.82" cy="233.89" r="4" fill="#2563eb"/><circle cx="148.13" cy="233.88" r="4" fill="#2563eb"/><circle cx="154.44" cy="215.21" r="4" fill="#2563eb"/><circle cx="160.76" cy="183.32" r="4" fill="#2563eb"/><circle cx="167.07" cy="187.28" r="4" fill="#2563eb"/><circle cx="173.38" cy="244.26" r="4" fill="#2563eb"/><circle cx="179.70" cy="268.62" r="4" fill="#2563eb"/><circle cx="186.01" cy="259.15" r="4" fill="#2563eb"/><circle cx="192.32" cy="257.64" r="4" fill="#2563eb"/><circle cx="198.64" cy="259.59" r="4" fill="#2563eb"/><circle cx="204.95" cy="223.30" r="4" fill="#2563eb"/><circle cx="211.26" cy="272.14" r="4" fill="#2563eb"/><circle cx="217.58" cy="315.58" r="4" fill="#2563eb"/><circle cx="223.89" cy="269.58" r="4" fill="#2563eb"/><circle cx="230.20" cy="293.19" r="4" fill="#2563eb"/><circle cx="236.52" cy="315.44" r="4" fill="#2563eb"/><circle cx="242.83" cy="258.62" r="4" fill="#2563eb"/><circle cx="249.14" cy="311.85" r="4" fill="#2563eb"/><circle cx="255.45" cy="283.54" r="4" fill="#2563eb"/><circle cx="261.77" cy="274.42" r="4" fill="#2563eb"/><circle cx="268.08" cy="262.46" r="4" fill="#2563eb"/><circle cx="274.39" cy="258.55" r="4" fill="#2563eb"/><circle cx="280.71" cy="274.11" r="4" fill="#2563eb"/><circle cx="287.02" cy="278.82" r="4" fill="#2563eb"/><circle cx="293.33" cy="277.81" r="4" fill="#2563eb"/><circle cx="299.65" cy="301.83" r="4" fill="#2563eb"/><circle cx="305.96" cy="266.88" r="4" fill="#2563eb"/><circle cx="312.27" cy="294.44" r="4" fill="#2563eb"/><circle cx="318.59" cy="244.77" r="4" fill="#2563eb"/><circle cx="324.90" cy="324.58" r="4" fill="#2563eb"/><circle cx="331.21" cy="292.83" r="4" fill="#2563eb"/><circle cx="337.53" cy="303.68" r="4" fill="#2563eb"/><circle cx="343.84" cy="296.95" r="4" fill="#2563eb"/><circle cx="350.15" cy="300.83" r="4" fill="#2563eb"/><circle cx="356.46" cy="306.46" r="4" fill="#2563eb"/><circle cx="362.78" cy="276.88" r="4" fill="#2563eb"/><circle cx="369.09" cy="301.45" r="4" fill="#2563eb"/><circle cx="375.40" cy="218.59" r="4" fill="#2563eb"/><circle cx="381.72" cy="318.06" r="4" fill="#2563eb"/><circle cx="388.03" cy="337.13" r="4" fill="#2563eb"/><circle cx="394.34" cy="313.68" r="4" fill="#2563eb"/><circle cx="400.66" cy="318.59" r="4" fill="#2563eb"/><circle cx="406.97" cy="276.71" r="4" fill="#2563eb"/><circle cx="413.28" cy="297.52" r="4" fill="#2563eb"/><circle cx="419.60" cy="328.14" r="4" fill="#2563eb"/><circle cx="425.91" cy="315.48" r="4" fill="#2563eb"/><circle cx="432.22" cy="258.07" r="4" fill="#2563eb"/><circle cx="438.54" cy="357.02" r="4" fill="#2563eb"/><circle cx="444.85" cy="309.27" r="4" fill="#2563eb"/><circle cx="451.16" cy="342.12" r="4" fill="#2563eb"/><circle cx="457.47" cy="321.40" r="4" fill="#2563eb"/><circle cx="463.79" cy="365.27" r="4" fill="#2563eb"/><circle cx="470.10" cy="360.73" r="4" fill="#2563eb"/><circle cx="476.41" cy="259.41" r="4" fill="#2563eb"/><circle cx="482.73" cy="299.64" r="4" fill="#2563eb"/><circle cx="489.04" cy="325.85" r="4" fill="#2563eb"/><circle cx="495.35" cy="326.15" r="4" fill="#2563eb"/><circle cx="501.67" cy="348.74" r="4" fill="#2563eb"/><circle cx="507.98" cy="339.23" r="4" fill="#2563eb"/><circle cx="514.29" cy="330.15" r="4" fill="#2563eb"/><circle cx="520.61" cy="287.51" r="4" fill="#2563eb"/><circle cx="526.92" cy="340.36" r="4" fill="#2563eb"/><circle cx="533.23" cy="324.38" r="4" fill="#2563eb"/><circle cx="539.55" cy="307.51" r="4" fill="#2563eb"/><circle cx="545.86" cy="310.80" r="4" fill="#2563eb"/><circle cx="552.17" cy="294.26" r="4" fill="#2563eb"/><circle cx="558.48" cy="334.93" r="4" fill="#2563eb"/><circle cx="564.80" cy="326.83" r="4" fill="#2563eb"/><circle cx="571.11" cy="338.03" r="4" fill="#2563eb"/><circle cx="577.42" cy="321.62" r="4" fill="#2563eb"/><circle cx="583.74" cy="336.93" r="4" fill="#2563eb"/><circle cx="590.05" cy="332.47" r="4" fill="#2563eb"/><circle cx="596.36" cy="366.77" r="4" fill="#2563eb"/><circle cx="602.68" cy="343.14" r="4" fill="#2563eb"/><circle cx="608.99" cy="320.40" r="4" fill="#2563eb"/><circle cx="615.30" cy="385.52" r="4" fill="#2563eb"/><circle cx="621.62" cy="328.86" r="4" fill="#2563eb"/><circle cx="627.93" cy="296.01" r="4" fill="#2563eb"/><circle cx="634.24" cy="348.80" r="4" fill="#2563eb"/><circle cx="640.56" cy="355.05" r="4" fill="#2563eb"/><circle cx="646.87" cy="363.60" r="4" fill="#2563eb"/><circle cx="653.18" cy="311.83" r="4" fill="#2563eb"/><circle cx="659.49" cy="310.19" r="4" fill="#2563eb"/><circle cx="665.81" cy="348.57" r="4" fill="#2563eb"/><circle cx="672.12" cy="329.52" r="4" fill="#2563eb"/><circle cx="678.43" cy="328.89" r="4" fill="#2563eb"/><circle cx="684.75" cy="368.27" r="4" fill="#2563eb"/><circle cx="691.06" cy="353.19" r="4" fill="#2563eb"/><circle cx="697.37" cy="353.39" r="4" fill="#2563eb"/><circle cx="703.69" cy="333.70" r="4" fill="#2563eb"/><circle cx="710.00" cy="333.29" r="4" fill="#2563eb"/><line x1="730" y1="55" x2="755" y2="55" stroke="#2563eb" stroke-width="3"/><text x="762" y="59" font-size="12">true-batch training loss</text></svg>
