<svg xmlns="http://www.w3.org/2000/svg" width="900" height="480" viewBox="0 0 900 480"><rect width="100%" height="100%" fill="white"/><style>text{font-family:Arial,"Microsoft YaHei",sans-serif;fill:#172033}.axis{stroke:#4b5563;stroke-width:1.4}.grid{stroke:#d9dee7;stroke-width:1}.line{fill:none;stroke-width:2.5}</style><text x="450.0" y="30" text-anchor="middle" font-size="20" font-weight="700">Correct-image causal recovery</text><line class="grid" x1="85" y1="410.00" x2="710" y2="410.00"/><text x="75" y="414.00" text-anchor="end" font-size="12">-0.275</text><line class="grid" x1="85" y1="339.00" x2="710" y2="339.00"/><text x="75" y="343.00" text-anchor="end" font-size="12">-0.140</text><line class="grid" x1="85" y1="268.00" x2="710" y2="268.00"/><text x="75" y="272.00" text-anchor="end" font-size="12">-0.005</text><line class="grid" x1="85" y1="197.00" x2="710" y2="197.00"/><text x="75" y="201.00" text-anchor="end" font-size="12">0.130</text><line class="grid" x1="85" y1="126.00" x2="710" y2="126.00"/><text x="75" y="130.00" text-anchor="end" font-size="12">0.265</text><line class="grid" x1="85" y1="55.00" x2="710" y2="55.00"/><text x="75" y="59.00" text-anchor="end" font-size="12">0.400</text><line class="grid" x1="85.00" y1="55" x2="85.00" y2="410"/><text x="85.00" y="432" text-anchor="middle" font-size="12">0</text><line class="grid" x1="220.87" y1="55" x2="220.87" y2="410"/><text x="220.87" y="432" text-anchor="middle" font-size="12">5</text><line class="grid" x1="329.57" y1="55" x2="329.57" y2="410"/><text x="329.57" y="432" text-anchor="middle" font-size="12">9</text><line class="grid" x1="465.43" y1="55" x2="465.43" y2="410"/><text x="465.43" y="432" text-anchor="middle" font-size="12">14</text><line class="grid" x1="574.13" y1="55" x2="574.13" y2="410"/><text x="574.13" y="432" text-anchor="middle" font-size="12">18</text><line class="grid" x1="710.00" y1="55" x2="710.00" y2="410"/><text x="710.00" y="432" text-anchor="middle" font-size="12">23</text><line class="axis" x1="85" y1="410" x2="710" y2="410"/><line class="axis" x1="85" y1="55" x2="85" y2="410"/><text x="397.5" y="460" text-anchor="middle" font-size="14">patched decoder layer</text><text x="20" y="232.5" transform="rotate(-90 20 232.5)" text-anchor="middle" font-size="14">margin effect vs paired-counterfactual</text><polyline class="line" stroke="#2563eb" points="85.00,237.59 112.17,201.47 139.35,193.75 166.52,203.60 193.70,265.50 220.87,304.90 248.04,385.52 275.22,370.25 302.39,380.43 329.57,370.25 356.74,351.20 383.91,379.77 411.09,331.83 438.26,338.40 465.43,293.08 492.61,304.25 519.78,287.99 546.96,289.47 574.13,298.83 601.30,289.31 628.48,316.56 655.65,371.40 682.83,323.13 710.00,265.34"/><circle cx="85.00" cy="237.59" r="4" fill="#2563eb"/><circle cx="112.17" cy="201.47" r="4" fill="#2563eb"/><circle cx="139.35" cy="193.75" r="4" fill="#2563eb"/><circle cx="166.52" cy="203.60" r="4" fill="#2563eb"/><circle cx="193.70" cy="265.50" r="4" fill="#2563eb"/><circle cx="220.87" cy="304.90" r="4" fill="#2563eb"/><circle cx="248.04" cy="385.52" r="4" fill="#2563eb"/><circle cx="275.22" cy="370.25" r="4" fill="#2563eb"/><circle cx="302.39" cy="380.43" r="4" fill="#2563eb"/><circle cx="329.57" cy="370.25" r="4" fill="#2563eb"/><circle cx="356.74" cy="351.20" r="4" fill="#2563eb"/><circle cx="383.91" cy="379.77" r="4" fill="#2563eb"/><circle cx="411.09" cy="331.83" r="4" fill="#2563eb"/><circle cx="438.26" cy="338.40" r="4" fill="#2563eb"/><circle cx="465.43" cy="293.08" r="4" fill="#2563eb"/><circle cx="492.61" cy="304.25" r="4" fill="#2563eb"/><circle cx="519.78" cy="287.99" r="4" fill="#2563eb"/><circle cx="546.96" cy="289.47" r="4" fill="#2563eb"/><circle cx="574.13" cy="298.83" r="4" fill="#2563eb"/><circle cx="601.30" cy="289.31" r="4" fill="#2563eb"/><circle cx="628.48" cy="316.56" r="4" fill="#2563eb"/><circle cx="655.65" cy="371.40" r="4" fill="#2563eb"/><circle cx="682.83" cy="323.13" r="4" fill="#2563eb"/><circle cx="710.00" cy="265.34" r="4" fill="#2563eb"/><line x1="730" y1="55" x2="755" y2="55" stroke="#2563eb" stroke-width="3"/><text x="762" y="59" font-size="12">random</text><polyline class="line" stroke="#dc2626" points="85.00,118.56 112.17,116.92 139.35,120.20 166.52,116.59 193.70,159.93 220.87,125.45 248.04,111.33 275.22,120.20 302.39,127.75 329.57,136.95 356.74,158.29 383.91,79.48 411.09,127.42 438.26,161.57 465.43,255.16 492.61,231.84 519.78,244.98 546.96,267.63 574.13,283.72 601.30,293.25 628.48,260.74 655.65,263.37 682.83,265.34 710.00,265.34"/><circle cx="85.00" cy="118.56" r="4" fill="#dc2626"/><circle cx="112.17" cy="116.92" r="4" fill="#dc2626"/><circle cx="139.35" cy="120.20" r="4" fill="#dc2626"/><circle cx="166.52" cy="116.59" r="4" fill="#dc2626"/><circle cx="193.70" cy="159.93" r="4" fill="#dc2626"/><circle cx="220.87" cy="125.45" r="4" fill="#dc2626"/><circle cx="248.04" cy="111.33" r="4" fill="#dc2626"/><circle cx="275.22" cy="120.20" r="4" fill="#dc2626"/><circle cx="302.39" cy="127.75" r="4" fill="#dc2626"/><circle cx="329.57" cy="136.95" r="4" fill="#dc2626"/><circle cx="356.74" cy="158.29" r="4" fill="#dc2626"/><circle cx="383.91" cy="79.48" r="4" fill="#dc2626"/><circle cx="411.09" cy="127.42" r="4" fill="#dc2626"/><circle cx="438.26" cy="161.57" r="4" fill="#dc2626"/><circle cx="465.43" cy="255.16" r="4" fill="#dc2626"/><circle cx="492.61" cy="231.84" r="4" fill="#dc2626"/><circle cx="519.78" cy="244.98" r="4" fill="#dc2626"/><circle cx="546.96" cy="267.63" r="4" fill="#dc2626"/><circle cx="574.13" cy="283.72" r="4" fill="#dc2626"/><circle cx="601.30" cy="293.25" r="4" fill="#dc2626"/><circle cx="628.48" cy="260.74" r="4" fill="#dc2626"/><circle cx="655.65" cy="263.37" r="4" fill="#dc2626"/><circle cx="682.83" cy="265.34" r="4" fill="#dc2626"/><circle cx="710.00" cy="265.34" r="4" fill="#dc2626"/><line x1="730" y1="79" x2="755" y2="79" stroke="#dc2626" stroke-width="3"/><text x="762" y="83" font-size="12">step 1500</text><polyline class="line" stroke="#16a34a" points="85.00,224.95 112.17,208.86 139.35,212.47 166.52,201.96 193.70,227.90 220.87,188.50 248.04,184.89 275.22,193.42 302.39,195.39 329.57,199.01 356.74,208.53 383.91,196.05 411.09,221.66 438.26,238.08 465.43,228.89 492.61,220.02 519.78,221.01 546.96,232.83 574.13,256.14 601.30,265.99 628.48,263.69 655.65,251.22 682.83,260.41 710.00,265.34"/><circle cx="85.00" cy="224.95" r="4" fill="#16a34a"/><circle cx="112.17" cy="208.86" r="4" fill="#16a34a"/><circle cx="139.35" cy="212.47" r="4" fill="#16a34a"/><circle cx="166.52" cy="201.96" r="4" fill="#16a34a"/><circle cx="193.70" cy="227.90" r="4" fill="#16a34a"/><circle cx="220.87" cy="188.50" r="4" fill="#16a34a"/><circle cx="248.04" cy="184.89" r="4" fill="#16a34a"/><circle cx="275.22" cy="193.42" r="4" fill="#16a34a"/><circle cx="302.39" cy="195.39" r="4" fill="#16a34a"/><circle cx="329.57" cy="199.01" r="4" fill="#16a34a"/><circle cx="356.74" cy="208.53" r="4" fill="#16a34a"/><circle cx="383.91" cy="196.05" r="4" fill="#16a34a"/><circle cx="411.09" cy="221.66" r="4" fill="#16a34a"/><circle cx="438.26" cy="238.08" r="4" fill="#16a34a"/><circle cx="465.43" cy="228.89" r="4" fill="#16a34a"/><circle cx="492.61" cy="220.02" r="4" fill="#16a34a"/><circle cx="519.78" cy="221.01" r="4" fill="#16a34a"/><circle cx="546.96" cy="232.83" r="4" fill="#16a34a"/><circle cx="574.13" cy="256.14" r="4" fill="#16a34a"/><circle cx="601.30" cy="265.99" r="4" fill="#16a34a"/><circle cx="628.48" cy="263.69" r="4" fill="#16a34a"/><circle cx="655.65" cy="251.22" r="4" fill="#16a34a"/><circle cx="682.83" cy="260.41" r="4" fill="#16a34a"/><circle cx="710.00" cy="265.34" r="4" fill="#16a34a"/><line x1="730" y1="103" x2="755" y2="103" stroke="#16a34a" stroke-width="3"/><text x="762" y="107" font-size="12">step 2000</text></svg>
