<svg xmlns="http://www.w3.org/2000/svg" width="900" height="315" viewBox="0 0 900 315"><rect width="100%" height="100%" fill="white"/><style>text{font-family:Arial,"Microsoft YaHei",sans-serif;fill:#172033}.cell{stroke:#d9dee7;stroke-width:1}.value{font-size:12px;font-weight:700}</style><title>Input projector-token replacement</title><desc>margin effect; token positions are globally contextualized by row and checkpoint</desc><text x="450.0" y="30" text-anchor="middle" font-size="20" font-weight="700">Input projector-token replacement</text><text x="285.83" y="72" text-anchor="middle" font-size="12">random</text><text x="517.50" y="72" text-anchor="middle" font-size="12">step 1500</text><text x="749.17" y="72" text-anchor="middle" font-size="12">step 2000</text><text x="158" y="124.00" text-anchor="end" font-size="13">center token positions</text><rect class="cell" x="170.00" y="95.00" width="231.67" height="50" fill="hsl(217 74% 56.5%)"/><text class="value" x="285.83" y="124.00" text-anchor="middle">0.165</text><rect class="cell" x="401.67" y="95.00" width="231.67" height="50" fill="hsl(217 74% 68.3%)"/><text class="value" x="517.50" y="124.00" text-anchor="middle">-0.004</text><rect class="cell" x="633.33" y="95.00" width="231.67" height="50" fill="hsl(217 74% 67.3%)"/><text class="value" x="749.17" y="124.00" text-anchor="middle">0.009</text><text x="158" y="174.00" text-anchor="end" font-size="13">outer token positions</text><rect class="cell" x="170.00" y="145.00" width="231.67" height="50" fill="hsl(217 74% 79.9%)"/><text class="value" x="285.83" y="174.00" text-anchor="middle">-0.170</text><rect class="cell" x="401.67" y="145.00" width="231.67" height="50" fill="hsl(217 74% 47.2%)"/><text class="value" x="517.50" y="174.00" text-anchor="middle">0.297</text><rect class="cell" x="633.33" y="145.00" width="231.67" height="50" fill="hsl(217 74% 62.0%)"/><text class="value" x="749.17" y="174.00" text-anchor="middle">0.086</text><text x="158" y="224.00" text-anchor="end" font-size="13">full span</text><rect class="cell" x="170.00" y="195.00" width="231.67" height="50" fill="hsl(217 74% 68.4%)"/><text class="value" x="285.83" y="224.00" text-anchor="middle">-0.006</text><rect class="cell" x="401.67" y="195.00" width="231.67" height="50" fill="hsl(217 74% 47.5%)"/><text class="value" x="517.50" y="224.00" text-anchor="middle">0.292</text><rect class="cell" x="633.33" y="195.00" width="231.67" height="50" fill="hsl(217 74% 61.4%)"/><text class="value" x="749.17" y="224.00" text-anchor="middle">0.095</text><text x="450.0" y="297" text-anchor="middle" font-size="12">margin effect; token positions are globally contextualized; fixed scale [-0.4, 0.4]</text></svg>
