<svg xmlns="http://www.w3.org/2000/svg" width="900" height="565" viewBox="0 0 900 565"><rect width="100%" height="100%" fill="white"/><style>text{font-family:Arial,"Microsoft YaHei",sans-serif;fill:#172033}.cell{stroke:#d9dee7;stroke-width:1}.value{font-size:12px;font-weight:700}</style><title>Probe follows the actual visual source</title><desc>selection accuracy by row and checkpoint</desc><text x="450.0" y="30" text-anchor="middle" font-size="20" font-weight="700">Probe follows the actual visual source</text><text x="343.75" y="72" text-anchor="middle" font-size="12">target label</text><text x="691.25" y="72" text-anchor="middle" font-size="12">visual-source label</text><text x="158" y="124.00" text-anchor="end" font-size="13">001500 L12 vision</text><rect class="cell" x="170.00" y="95.00" width="347.50" height="50" fill="hsl(217 74% 51.8%)"/><text class="value" x="343.75" y="124.00" text-anchor="middle">0.790</text><rect class="cell" x="517.50" y="95.00" width="347.50" height="50" fill="hsl(217 74% 51.8%)"/><text class="value" x="691.25" y="124.00" text-anchor="middle">0.790</text><text x="158" y="174.00" text-anchor="end" font-size="13">001500 L12 paired_counterfactual_image</text><rect class="cell" x="170.00" y="145.00" width="347.50" height="50" fill="hsl(217 74% 91.8%)"/><text class="value" x="343.75" y="174.00" text-anchor="middle">0.075</text><rect class="cell" x="517.50" y="145.00" width="347.50" height="50" fill="hsl(217 74% 51.8%)"/><text class="value" x="691.25" y="174.00" text-anchor="middle">0.790</text><text x="158" y="224.00" text-anchor="end" font-size="13">001500 L12 shuffled_image</text><rect class="cell" x="170.00" y="195.00" width="347.50" height="50" fill="hsl(217 74% 83.1%)"/><text class="value" x="343.75" y="224.00" text-anchor="middle">0.230</text><rect class="cell" x="517.50" y="195.00" width="347.50" height="50" fill="hsl(217 74% 51.8%)"/><text class="value" x="691.25" y="224.00" text-anchor="middle">0.790</text><text x="158" y="274.00" text-anchor="end" font-size="13">001500 L12 patch_permutation</text><rect class="cell" x="170.00" y="245.00" width="347.50" height="50" fill="hsl(217 74% 70.9%)"/><text class="value" x="343.75" y="274.00" text-anchor="middle">0.447</text><rect class="cell" x="517.50" y="245.00" width="347.50" height="50" fill="hsl(217 74% 70.9%)"/><text class="value" x="691.25" y="274.00" text-anchor="middle">0.447</text><text x="158" y="324.00" text-anchor="end" font-size="13">002000 L14 vision</text><rect class="cell" x="170.00" y="295.00" width="347.50" height="50" fill="hsl(217 74% 62.1%)"/><text class="value" x="343.75" y="324.00" text-anchor="middle">0.605</text><rect class="cell" x="517.50" y="295.00" width="347.50" height="50" fill="hsl(217 74% 62.1%)"/><text class="value" x="691.25" y="324.00" text-anchor="middle">0.605</text><text x="158" y="374.00" text-anchor="end" font-size="13">002000 L14 paired_counterfactual_image</text><rect class="cell" x="170.00" y="345.00" width="347.50" height="50" fill="hsl(217 74% 89.7%)"/><text class="value" x="343.75" y="374.00" text-anchor="middle">0.112</text><rect class="cell" x="517.50" y="345.00" width="347.50" height="50" fill="hsl(217 74% 62.1%)"/><text class="value" x="691.25" y="374.00" text-anchor="middle">0.605</text><text x="158" y="424.00" text-anchor="end" font-size="13">002000 L14 shuffled_image</text><rect class="cell" x="170.00" y="395.00" width="347.50" height="50" fill="hsl(217 74% 84.7%)"/><text class="value" x="343.75" y="424.00" text-anchor="middle">0.203</text><rect class="cell" x="517.50" y="395.00" width="347.50" height="50" fill="hsl(217 74% 62.1%)"/><text class="value" x="691.25" y="424.00" text-anchor="middle">0.605</text><text x="158" y="474.00" text-anchor="end" font-size="13">002000 L14 patch_permutation</text><rect class="cell" x="170.00" y="445.00" width="347.50" height="50" fill="hsl(217 74% 71.1%)"/><text class="value" x="343.75" y="474.00" text-anchor="middle">0.445</text><rect class="cell" x="517.50" y="445.00" width="347.50" height="50" fill="hsl(217 74% 71.1%)"/><text class="value" x="691.25" y="474.00" text-anchor="middle">0.445</text><text x="450.0" y="547" text-anchor="middle" font-size="12">selection accuracy; fixed scale [0, 1]</text></svg>
