<svg xmlns="http://www.w3.org/2000/svg" width="900" height="480" viewBox="0 0 900 480"><rect width="100%" height="100%" fill="white"/><style>text{font-family:Arial,"Microsoft YaHei",sans-serif;fill:#172033}.axis{stroke:#4b5563;stroke-width:1.4}.grid{stroke:#d9dee7;stroke-width:1}.line{fill:none;stroke-width:2.5}</style><text x="450.0" y="30" text-anchor="middle" font-size="20" font-weight="700">Teacher-only sentinel cost on V100</text><line class="grid" x1="85" y1="410.00" x2="710" y2="410.00"/><text x="75" y="414.00" text-anchor="end" font-size="12">0.000</text><line class="grid" x1="85" y1="339.00" x2="710" y2="339.00"/><text x="75" y="343.00" text-anchor="end" font-size="12">12.000</text><line class="grid" x1="85" y1="268.00" x2="710" y2="268.00"/><text x="75" y="272.00" text-anchor="end" font-size="12">24.000</text><line class="grid" x1="85" y1="197.00" x2="710" y2="197.00"/><text x="75" y="201.00" text-anchor="end" font-size="12">36.000</text><line class="grid" x1="85" y1="126.00" x2="710" y2="126.00"/><text x="75" y="130.00" text-anchor="end" font-size="12">48.000</text><line class="grid" x1="85" y1="55.00" x2="710" y2="55.00"/><text x="75" y="59.00" text-anchor="end" font-size="12">60.000</text><line class="grid" x1="85.00" y1="55" x2="85.00" y2="410"/><text x="85.00" y="432" text-anchor="middle" font-size="12">25</text><line class="grid" x1="710.00" y1="55" x2="710.00" y2="410"/><text x="710.00" y="432" text-anchor="middle" font-size="12">50</text><line class="axis" x1="85" y1="410" x2="710" y2="410"/><line class="axis" x1="85" y1="55" x2="85" y2="410"/><text x="397.5" y="460" text-anchor="middle" font-size="14">complete pairs per task</text><text x="20" y="232.5" transform="rotate(-90 20 232.5)" text-anchor="middle" font-size="14">median seconds across three repeats</text><polyline class="line" stroke="#2563eb" points="85.00,276.87 710.00,150.37"/><circle cx="85.00" cy="276.87" r="4" fill="#2563eb"/><circle cx="710.00" cy="150.37" r="4" fill="#2563eb"/><line x1="730" y1="55" x2="755" y2="55" stroke="#2563eb" stroke-width="3"/><text x="762" y="59" font-size="12">synchronized teacher</text><polyline class="line" stroke="#dc2626" points="85.00,225.31 710.00,99.15"/><circle cx="85.00" cy="225.31" r="4" fill="#dc2626"/><circle cx="710.00" cy="99.15" r="4" fill="#dc2626"/><line x1="730" y1="79" x2="755" y2="79" stroke="#dc2626" stroke-width="3"/><text x="762" y="83" font-size="12">separate-process wall</text></svg>
