<svg xmlns="http://www.w3.org/2000/svg" width="900" height="465" viewBox="0 0 900 465"><rect width="100%" height="100%" fill="white"/><style>text{font-family:Arial,"Microsoft YaHei",sans-serif;fill:#172033}.cell{stroke:#d9dee7;stroke-width:1}.value{font-size:12px;font-weight:700}</style><title>Balanced trajectory: paired free generation</title><desc>accuracy by row and checkpoint</desc><text x="450.0" y="30" text-anchor="middle" font-size="20" font-weight="700">Balanced trajectory: paired free generation</text><text x="219.64" y="72" text-anchor="middle" font-size="12">base</text><text x="318.93" y="72" text-anchor="middle" font-size="12">L25</text><text x="418.21" y="72" text-anchor="middle" font-size="12">L50</text><text x="517.50" y="72" text-anchor="middle" font-size="12">L100</text><text x="616.79" y="72" text-anchor="middle" font-size="12">P25</text><text x="716.07" y="72" text-anchor="middle" font-size="12">P50</text><text x="815.36" y="72" text-anchor="middle" font-size="12">P100</text><text x="158" y="124.00" text-anchor="end" font-size="13">color</text><rect class="cell" x="170.00" y="95.00" width="99.29" height="50" fill="hsl(217 74% 96.0%)"/><text class="value" x="219.64" y="124.00" text-anchor="middle">0.000</text><rect class="cell" x="269.29" y="95.00" width="99.29" height="50" fill="hsl(217 74% 96.0%)"/><text class="value" x="318.93" y="124.00" text-anchor="middle">0.000</text><rect class="cell" x="368.57" y="95.00" width="99.29" height="50" fill="hsl(217 74% 96.0%)"/><text class="value" x="418.21" y="124.00" text-anchor="middle">0.000</text><rect class="cell" x="467.86" y="95.00" width="99.29" height="50" fill="hsl(217 74% 96.0%)"/><text class="value" x="517.50" y="124.00" text-anchor="middle">0.000</text><rect class="cell" x="567.14" y="95.00" width="99.29" height="50" fill="hsl(217 74% 94.9%)"/><text class="value" x="616.79" y="124.00" text-anchor="middle">0.020</text><rect class="cell" x="666.43" y="95.00" width="99.29" height="50" fill="hsl(217 74% 88.2%)"/><text class="value" x="716.07" y="124.00" text-anchor="middle">0.140</text><rect class="cell" x="765.71" y="95.00" width="99.29" height="50" fill="hsl(217 74% 87.0%)"/><text class="value" x="815.36" y="124.00" text-anchor="middle">0.160</text><text x="158" y="174.00" text-anchor="end" font-size="13">coordinate</text><rect class="cell" x="170.00" y="145.00" width="99.29" height="50" fill="hsl(217 74% 96.0%)"/><text class="value" x="219.64" y="174.00" text-anchor="middle">0.000</text><rect class="cell" x="269.29" y="145.00" width="99.29" height="50" fill="hsl(217 74% 96.0%)"/><text class="value" x="318.93" y="174.00" text-anchor="middle">0.000</text><rect class="cell" x="368.57" y="145.00" width="99.29" height="50" fill="hsl(217 74% 96.0%)"/><text class="value" x="418.21" y="174.00" text-anchor="middle">0.000</text><rect class="cell" x="467.86" y="145.00" width="99.29" height="50" fill="hsl(217 74% 96.0%)"/><text class="value" x="517.50" y="174.00" text-anchor="middle">0.000</text><rect class="cell" x="567.14" y="145.00" width="99.29" height="50" fill="hsl(217 74% 96.0%)"/><text class="value" x="616.79" y="174.00" text-anchor="middle">0.000</text><rect class="cell" x="666.43" y="145.00" width="99.29" height="50" fill="hsl(217 74% 94.9%)"/><text class="value" x="716.07" y="174.00" text-anchor="middle">0.020</text><rect class="cell" x="765.71" y="145.00" width="99.29" height="50" fill="hsl(217 74% 82.6%)"/><text class="value" x="815.36" y="174.00" text-anchor="middle">0.240</text><text x="158" y="224.00" text-anchor="end" font-size="13">count</text><rect class="cell" x="170.00" y="195.00" width="99.29" height="50" fill="hsl(217 74% 96.0%)"/><text class="value" x="219.64" y="224.00" text-anchor="middle">0.000</text><rect class="cell" x="269.29" y="195.00" width="99.29" height="50" fill="hsl(217 74% 96.0%)"/><text class="value" x="318.93" y="224.00" text-anchor="middle">0.000</text><rect class="cell" x="368.57" y="195.00" width="99.29" height="50" fill="hsl(217 74% 96.0%)"/><text class="value" x="418.21" y="224.00" text-anchor="middle">0.000</text><rect class="cell" x="467.86" y="195.00" width="99.29" height="50" fill="hsl(217 74% 96.0%)"/><text class="value" x="517.50" y="224.00" text-anchor="middle">0.000</text><rect class="cell" x="567.14" y="195.00" width="99.29" height="50" fill="hsl(217 74% 93.8%)"/><text class="value" x="616.79" y="224.00" text-anchor="middle">0.040</text><rect class="cell" x="666.43" y="195.00" width="99.29" height="50" fill="hsl(217 74% 94.9%)"/><text class="value" x="716.07" y="224.00" text-anchor="middle">0.020</text><rect class="cell" x="765.71" y="195.00" width="99.29" height="50" fill="hsl(217 74% 94.9%)"/><text class="value" x="815.36" y="224.00" text-anchor="middle">0.020</text><text x="158" y="274.00" text-anchor="end" font-size="13">ocr</text><rect class="cell" x="170.00" y="245.00" width="99.29" height="50" fill="hsl(217 74% 96.0%)"/><text class="value" x="219.64" y="274.00" text-anchor="middle">0.000</text><rect class="cell" x="269.29" y="245.00" width="99.29" height="50" fill="hsl(217 74% 96.0%)"/><text class="value" x="318.93" y="274.00" text-anchor="middle">0.000</text><rect class="cell" x="368.57" y="245.00" width="99.29" height="50" fill="hsl(217 74% 96.0%)"/><text class="value" x="418.21" y="274.00" text-anchor="middle">0.000</text><rect class="cell" x="467.86" y="245.00" width="99.29" height="50" fill="hsl(217 74% 96.0%)"/><text class="value" x="517.50" y="274.00" text-anchor="middle">0.000</text><rect class="cell" x="567.14" y="245.00" width="99.29" height="50" fill="hsl(217 74% 96.0%)"/><text class="value" x="616.79" y="274.00" text-anchor="middle">0.000</text><rect class="cell" x="666.43" y="245.00" width="99.29" height="50" fill="hsl(217 74% 96.0%)"/><text class="value" x="716.07" y="274.00" text-anchor="middle">0.000</text><rect class="cell" x="765.71" y="245.00" width="99.29" height="50" fill="hsl(217 74% 96.0%)"/><text class="value" x="815.36" y="274.00" text-anchor="middle">0.000</text><text x="158" y="324.00" text-anchor="end" font-size="13">shape</text><rect class="cell" x="170.00" y="295.00" width="99.29" height="50" fill="hsl(217 74% 87.0%)"/><text class="value" x="219.64" y="324.00" text-anchor="middle">0.160</text><rect class="cell" x="269.29" y="295.00" width="99.29" height="50" fill="hsl(217 74% 85.9%)"/><text class="value" x="318.93" y="324.00" text-anchor="middle">0.180</text><rect class="cell" x="368.57" y="295.00" width="99.29" height="50" fill="hsl(217 74% 62.4%)"/><text class="value" x="418.21" y="324.00" text-anchor="middle">0.600</text><rect class="cell" x="467.86" y="295.00" width="99.29" height="50" fill="hsl(217 74% 69.1%)"/><text class="value" x="517.50" y="324.00" text-anchor="middle">0.480</text><rect class="cell" x="567.14" y="295.00" width="99.29" height="50" fill="hsl(217 74% 87.0%)"/><text class="value" x="616.79" y="324.00" text-anchor="middle">0.160</text><rect class="cell" x="666.43" y="295.00" width="99.29" height="50" fill="hsl(217 74% 73.6%)"/><text class="value" x="716.07" y="324.00" text-anchor="middle">0.400</text><rect class="cell" x="765.71" y="295.00" width="99.29" height="50" fill="hsl(217 74% 89.3%)"/><text class="value" x="815.36" y="324.00" text-anchor="middle">0.120</text><text x="158" y="374.00" text-anchor="end" font-size="13">spatial</text><rect class="cell" x="170.00" y="345.00" width="99.29" height="50" fill="hsl(217 74% 83.7%)"/><text class="value" x="219.64" y="374.00" text-anchor="middle">0.220</text><rect class="cell" x="269.29" y="345.00" width="99.29" height="50" fill="hsl(217 74% 77.0%)"/><text class="value" x="318.93" y="374.00" text-anchor="middle">0.340</text><rect class="cell" x="368.57" y="345.00" width="99.29" height="50" fill="hsl(217 74% 96.0%)"/><text class="value" x="418.21" y="374.00" text-anchor="middle">0.000</text><rect class="cell" x="467.86" y="345.00" width="99.29" height="50" fill="hsl(217 74% 96.0%)"/><text class="value" x="517.50" y="374.00" text-anchor="middle">0.000</text><rect class="cell" x="567.14" y="345.00" width="99.29" height="50" fill="hsl(217 74% 96.0%)"/><text class="value" x="616.79" y="374.00" text-anchor="middle">0.000</text><rect class="cell" x="666.43" y="345.00" width="99.29" height="50" fill="hsl(217 74% 52.3%)"/><text class="value" x="716.07" y="374.00" text-anchor="middle">0.780</text><rect class="cell" x="765.71" y="345.00" width="99.29" height="50" fill="hsl(217 74% 40.0%)"/><text class="value" x="815.36" y="374.00" text-anchor="middle">1.000</text><text x="450.0" y="447" text-anchor="middle" font-size="12">accuracy; fixed scale [0, 1]</text></svg>
