<svg xmlns="http://www.w3.org/2000/svg" width="900" height="480" viewBox="0 0 900 480"><rect width="100%" height="100%" fill="white"/><style>text{font-family:Arial,"Microsoft YaHei",sans-serif;fill:#172033}.axis{stroke:#4b5563;stroke-width:1.4}.grid{stroke:#d9dee7;stroke-width:1}.line{fill:none;stroke-width:2.5}</style><text x="450.0" y="30" text-anchor="middle" font-size="20" font-weight="700">Projector retention: task paired generation</text><line class="grid" x1="85" y1="410.00" x2="710" y2="410.00"/><text x="75" y="414.00" text-anchor="end" font-size="12">0.000</text><line class="grid" x1="85" y1="339.00" x2="710" y2="339.00"/><text x="75" y="343.00" text-anchor="end" font-size="12">0.200</text><line class="grid" x1="85" y1="268.00" x2="710" y2="268.00"/><text x="75" y="272.00" text-anchor="end" font-size="12">0.400</text><line class="grid" x1="85" y1="197.00" x2="710" y2="197.00"/><text x="75" y="201.00" text-anchor="end" font-size="12">0.600</text><line class="grid" x1="85" y1="126.00" x2="710" y2="126.00"/><text x="75" y="130.00" text-anchor="end" font-size="12">0.800</text><line class="grid" x1="85" y1="55.00" x2="710" y2="55.00"/><text x="75" y="59.00" text-anchor="end" font-size="12">1.000</text><line class="grid" x1="85.00" y1="55" x2="85.00" y2="410"/><text x="85.00" y="432" text-anchor="middle" font-size="12">0</text><line class="grid" x1="241.25" y1="55" x2="241.25" y2="410"/><text x="241.25" y="432" text-anchor="middle" font-size="12">1</text><line class="grid" x1="397.50" y1="55" x2="397.50" y2="410"/><text x="397.50" y="432" text-anchor="middle" font-size="12">2</text><line class="grid" x1="553.75" y1="55" x2="553.75" y2="410"/><text x="553.75" y="432" text-anchor="middle" font-size="12">3</text><line class="grid" x1="710.00" y1="55" x2="710.00" y2="410"/><text x="710.00" y="432" text-anchor="middle" font-size="12">4</text><line class="axis" x1="85" y1="410" x2="710" y2="410"/><line class="axis" x1="85" y1="55" x2="85" y2="410"/><text x="397.5" y="460" text-anchor="middle" font-size="14">state 0=P50, 1=control, 2=1e-4, 3=1e-3, 4=1e-2</text><text x="20" y="232.5" transform="rotate(-90 20 232.5)" text-anchor="middle" font-size="14">paired generation</text><polyline class="line" stroke="#2563eb" points="85.00,360.30 241.25,353.20 397.50,388.70 553.75,182.80 710.00,204.10"/><circle cx="85.00" cy="360.30" r="4" fill="#2563eb"/><circle cx="241.25" cy="353.20" r="4" fill="#2563eb"/><circle cx="397.50" cy="388.70" r="4" fill="#2563eb"/><circle cx="553.75" cy="182.80" r="4" fill="#2563eb"/><circle cx="710.00" cy="204.10" r="4" fill="#2563eb"/><line x1="730" y1="55" x2="755" y2="55" stroke="#2563eb" stroke-width="3"/><text x="762" y="59" font-size="12">color</text><polyline class="line" stroke="#dc2626" points="85.00,402.90 241.25,324.80 397.50,289.30 553.75,225.40 710.00,310.60"/><circle cx="85.00" cy="402.90" r="4" fill="#dc2626"/><circle cx="241.25" cy="324.80" r="4" fill="#dc2626"/><circle cx="397.50" cy="289.30" r="4" fill="#dc2626"/><circle cx="553.75" cy="225.40" r="4" fill="#dc2626"/><circle cx="710.00" cy="310.60" r="4" fill="#dc2626"/><line x1="730" y1="79" x2="755" y2="79" stroke="#dc2626" stroke-width="3"/><text x="762" y="83" font-size="12">coordinate</text><polyline class="line" stroke="#16a34a" points="85.00,402.90 241.25,402.90 397.50,402.90 553.75,402.90 710.00,395.80"/><circle cx="85.00" cy="402.90" r="4" fill="#16a34a"/><circle cx="241.25" cy="402.90" r="4" fill="#16a34a"/><circle cx="397.50" cy="402.90" r="4" fill="#16a34a"/><circle cx="553.75" cy="402.90" r="4" fill="#16a34a"/><circle cx="710.00" cy="395.80" r="4" fill="#16a34a"/><line x1="730" y1="103" x2="755" y2="103" stroke="#16a34a" stroke-width="3"/><text x="762" y="107" font-size="12">count</text><polyline class="line" stroke="#9333ea" points="85.00,410.00 241.25,410.00 397.50,410.00 553.75,410.00 710.00,410.00"/><circle cx="85.00" cy="410.00" r="4" fill="#9333ea"/><circle cx="241.25" cy="410.00" r="4" fill="#9333ea"/><circle cx="397.50" cy="410.00" r="4" fill="#9333ea"/><circle cx="553.75" cy="410.00" r="4" fill="#9333ea"/><circle cx="710.00" cy="410.00" r="4" fill="#9333ea"/><line x1="730" y1="127" x2="755" y2="127" stroke="#9333ea" stroke-width="3"/><text x="762" y="131" font-size="12">ocr</text><polyline class="line" stroke="#ea580c" points="85.00,253.80 241.25,367.40 397.50,388.70 553.75,367.40 710.00,367.40"/><circle cx="85.00" cy="253.80" r="4" fill="#ea580c"/><circle cx="241.25" cy="367.40" r="4" fill="#ea580c"/><circle cx="397.50" cy="388.70" r="4" fill="#ea580c"/><circle cx="553.75" cy="367.40" r="4" fill="#ea580c"/><circle cx="710.00" cy="367.40" r="4" fill="#ea580c"/><line x1="730" y1="151" x2="755" y2="151" stroke="#ea580c" stroke-width="3"/><text x="762" y="155" font-size="12">shape</text><polyline class="line" stroke="#0891b2" points="85.00,133.10 241.25,55.00 397.50,55.00 553.75,55.00 710.00,133.10"/><circle cx="85.00" cy="133.10" r="4" fill="#0891b2"/><circle cx="241.25" cy="55.00" r="4" fill="#0891b2"/><circle cx="397.50" cy="55.00" r="4" fill="#0891b2"/><circle cx="553.75" cy="55.00" r="4" fill="#0891b2"/><circle cx="710.00" cy="133.10" r="4" fill="#0891b2"/><line x1="730" y1="175" x2="755" y2="175" stroke="#0891b2" stroke-width="3"/><text x="762" y="179" font-size="12">spatial</text></svg>
