<svg xmlns="http://www.w3.org/2000/svg" width="900" height="465" viewBox="0 0 900 465"><rect width="100%" height="100%" fill="white"/><style>text{font-family:Arial,"Microsoft YaHei",sans-serif;fill:#172033}.cell{stroke:#d9dee7;stroke-width:1}.value{font-size:12px;font-weight:700}</style><title>Balanced trajectory: strict paired preference</title><desc>accuracy by row and checkpoint</desc><text x="450.0" y="30" text-anchor="middle" font-size="20" font-weight="700">Balanced trajectory: strict paired preference</text><text x="285.83" y="72" text-anchor="middle" font-size="12">base</text><text x="517.50" y="72" text-anchor="middle" font-size="12">L50</text><text x="749.17" y="72" text-anchor="middle" font-size="12">P50</text><text x="158" y="124.00" text-anchor="end" font-size="13">color</text><rect class="cell" x="170.00" y="95.00" width="231.67" height="50" fill="hsl(217 74% 83.1%)"/><text class="value" x="285.83" y="124.00" text-anchor="middle">0.230</text><rect class="cell" x="401.67" y="95.00" width="231.67" height="50" fill="hsl(217 74% 76.4%)"/><text class="value" x="517.50" y="124.00" text-anchor="middle">0.350</text><rect class="cell" x="633.33" y="95.00" width="231.67" height="50" fill="hsl(217 74% 60.4%)"/><text class="value" x="749.17" y="124.00" text-anchor="middle">0.635</text><text x="158" y="174.00" text-anchor="end" font-size="13">coordinate</text><rect class="cell" x="170.00" y="145.00" width="231.67" height="50" fill="hsl(217 74% 92.9%)"/><text class="value" x="285.83" y="174.00" text-anchor="middle">0.055</text><rect class="cell" x="401.67" y="145.00" width="231.67" height="50" fill="hsl(217 74% 93.5%)"/><text class="value" x="517.50" y="174.00" text-anchor="middle">0.045</text><rect class="cell" x="633.33" y="145.00" width="231.67" height="50" fill="hsl(217 74% 72.8%)"/><text class="value" x="749.17" y="174.00" text-anchor="middle">0.415</text><text x="158" y="224.00" text-anchor="end" font-size="13">count</text><rect class="cell" x="170.00" y="195.00" width="231.67" height="50" fill="hsl(217 74% 89.6%)"/><text class="value" x="285.83" y="224.00" text-anchor="middle">0.115</text><rect class="cell" x="401.67" y="195.00" width="231.67" height="50" fill="hsl(217 74% 95.4%)"/><text class="value" x="517.50" y="224.00" text-anchor="middle">0.010</text><rect class="cell" x="633.33" y="195.00" width="231.67" height="50" fill="hsl(217 74% 74.7%)"/><text class="value" x="749.17" y="224.00" text-anchor="middle">0.380</text><text x="158" y="274.00" text-anchor="end" font-size="13">ocr</text><rect class="cell" x="170.00" y="245.00" width="231.67" height="50" fill="hsl(217 74% 88.4%)"/><text class="value" x="285.83" y="274.00" text-anchor="middle">0.135</text><rect class="cell" x="401.67" y="245.00" width="231.67" height="50" fill="hsl(217 74% 87.3%)"/><text class="value" x="517.50" y="274.00" text-anchor="middle">0.155</text><rect class="cell" x="633.33" y="245.00" width="231.67" height="50" fill="hsl(217 74% 87.3%)"/><text class="value" x="749.17" y="274.00" text-anchor="middle">0.155</text><text x="158" y="324.00" text-anchor="end" font-size="13">shape</text><rect class="cell" x="170.00" y="295.00" width="231.67" height="50" fill="hsl(217 74% 64.6%)"/><text class="value" x="285.83" y="324.00" text-anchor="middle">0.560</text><rect class="cell" x="401.67" y="295.00" width="231.67" height="50" fill="hsl(217 74% 45.6%)"/><text class="value" x="517.50" y="324.00" text-anchor="middle">0.900</text><rect class="cell" x="633.33" y="295.00" width="231.67" height="50" fill="hsl(217 74% 54.8%)"/><text class="value" x="749.17" y="324.00" text-anchor="middle">0.735</text><text x="158" y="374.00" text-anchor="end" font-size="13">spatial</text><rect class="cell" x="170.00" y="345.00" width="231.67" height="50" fill="hsl(217 74% 82.0%)"/><text class="value" x="285.83" y="374.00" text-anchor="middle">0.250</text><rect class="cell" x="401.67" y="345.00" width="231.67" height="50" fill="hsl(217 74% 96.0%)"/><text class="value" x="517.50" y="374.00" text-anchor="middle">0.000</text><rect class="cell" x="633.33" y="345.00" width="231.67" height="50" fill="hsl(217 74% 54.0%)"/><text class="value" x="749.17" y="374.00" text-anchor="middle">0.750</text><text x="450.0" y="447" text-anchor="middle" font-size="12">accuracy; fixed scale [0, 1]</text></svg>
